<svg xmlns="http://www.w3.org/2000/svg" baseProfile="full" version="1.1" width="1305px" height="510px" style="fill: none; width: 1305px; height: 510px;"><path d="" style="stroke-width: 15; stroke-linecap: round; stroke-linejoin: round; stroke: rgb(106, 106, 106); fill: none;"/><path d="" style="stroke-width: 15; stroke-linecap: round; stroke-linejoin: round; stroke: rgb(74, 74, 74); fill: none;"/><path d="M120,300 Q600,120 1080,300 M120,300 Q600,555 1080,300 M540,255 L540,255 L660,255 L675,255 L675,255 L675,255 L675,270 M540,270 L540,270 L675,270 M600,270 L600,270 L615,270 L600,330 L615,330 M540,330 L540,330 L675,330 L540,345 L675,345 M600,270 L600,270 L600,270 L600,330 L615,330 L615,270 M540,255 L540,255 L540,270 M540,330 L540,330 L540,345 M675,330 L675,330 L675,345 " style="stroke-width: 15; stroke-linecap: round; stroke-linejoin: round; stroke: rgb(10, 10, 10); fill: none;"/></svg>